<svg xmlns="http://www.w3.org/2000/svg" width="270" height="162.599" viewBox="0 0 270 162.599">
    <defs>
        <style>
            .cls-1{fill:#594b98;opacity:.52}.cls-2{fill:#7a65ac}.cls-3{fill:#b6a2cd}.cls-5,.cls-6{fill:#160f3a}.cls-5{opacity:.2}.cls-6{opacity:.3}.cls-9{fill:#fff}
        </style>
    </defs>
    <g id="infographics" transform="translate(-.09 -.111)">
        <path id="Path_4034" d="M.09 159.71c0-1.34 17.27-2.43 38.57-2.43s38.57 1.09 38.57 2.43-17.27 3-38.57 3-38.57-1.66-38.57-3z" class="cls-1"/>
        <path id="Path_4035" d="M96.46 159.71c0-1.34 17.26-2.43 38.56-2.43s38.57 1.09 38.57 2.43-17.26 3-38.57 3-38.56-1.66-38.56-3z" class="cls-1" transform="translate(-.005)"/>
        <path id="Path_4036" d="M140.27 93.25a39.62 39.62 0 0 1 36.58-39.49 53.74 53.74 0 0 0-47.6 90.8l23-23a39.49 39.49 0 0 1-11.98-28.31z" class="cls-2" transform="translate(-.005)"/>
        <path id="Path_4037" d="M140.27 93.25a39.49 39.49 0 0 0 11.95 28.34l53-53c-.35-.36-.69-.73-1.06-1.07l-.07-.07a54.1 54.1 0 0 0-8.8-6.68l-.52-.31c-1-.61-2.06-1.19-3.12-1.73h-.08a53.761 53.761 0 0 0-10.49-4l-.72-.18c-1.16-.29-2.34-.55-3.53-.76a39.62 39.62 0 0 0-36.56 39.46z" class="cls-3" transform="translate(-.007)"/>
        <path id="Path_4038" fill="#594b98" d="M167.39 160.44a53.61 53.61 0 0 0 52.17-66.69 39.62 39.62 0 0 1-67.34 27.84l-23 23a53.57 53.57 0 0 0 38.17 15.85z" transform="translate(-.007)"/>
        <path id="Path_4039" d="M152.22 121.59a39.62 39.62 0 0 0 67.34-27.84A53.69 53.69 0 0 0 207 70.33l-.21-.22c-.49-.53-1-1-1.53-1.54z" class="cls-2" transform="translate(-.007)"/>
        <path id="Path_4040" d="M143.16 93.75a8.14 8.14 0 1 1-2.395-5.756 8.14 8.14 0 0 1 2.395 5.756z" class="cls-5" transform="translate(-.005)"/>
        <path id="Path_4041" d="M199.61 98.72a8.13 8.13 0 1 1-2.378-5.755 8.13 8.13 0 0 1 2.378 5.755z" class="cls-5" transform="translate(-.007)"/>
        <path id="Path_4042" d="M205.54 83.45a5.33 5.33 0 1 1-1.558-3.775 5.33 5.33 0 0 1 1.558 3.775z" class="cls-6" transform="translate(-.007)"/>
        <path id="Path_4043" fill="#fff" d="M166.19 85.62a5.33 5.33 0 1 1-5.33-5.33 5.33 5.33 0 0 1 5.33 5.33z" opacity="0.3" transform="translate(-.006)"/>
        <path id="Path_4044" fill="#fff" d="M183.07 71.41a7.82 7.82 0 1 1-7.82-7.82 7.82 7.82 0 0 1 7.82 7.82z" opacity="0.6" transform="translate(-.006)"/>
        <path id="Path_4045" d="M193.34 134.3a7.46 7.46 0 1 1-7.45-7.46 7.46 7.46 0 0 1 7.45 7.46z" class="cls-6" transform="translate(-.007)"/>
        <path id="Path_4046" d="M152.94 132.91a11.85 11.85 0 1 1-11.85-11.85 11.85 11.85 0 0 1 11.85 11.85z" class="cls-6" transform="translate(-.005)"/>
        <path id="Path_4047" d="M19.13 159.54c.95-.64 1.55-.92 2.54-1.51 5.13-3.05 10.49-3.81 16.39-4.09 2.27-.11 4.55-.26 6.81-.46a5.25 5.25 0 0 0 1.72-.59c1.73-.83 1.92-1.38 1.39-3.17a110.23 110.23 0 0 1-3.82-19.45c-.31-3-.7-6-.76-9-.07-3.67 1.2-7.11 2.49-10.49a79.49 79.49 0 0 0 5.31-26.59 3 3 0 0 0-.09-1.19c-1.29-2.75-.71-5.42.16-8.12a10 10 0 0 0 .45-2.54c.17-3.54.18-7.08.45-10.6a25.14 25.14 0 0 1 1.07-4.89 8.72 8.72 0 0 1 3.59-4.73 45 45 0 0 1 4-2.35 9.66 9.66 0 0 1 10 .25c1.42.81 2.74 1.78 4.11 2.68 1.53 1 3 2 4.6 3 1.71 1.05 1.74 2 1.06 3.79-1.18 3.2-3.95 4.24-6.62 5.49a2.52 2.52 0 0 0-1.67 1.94c-.31 1.72-.69 3.43-1 5.15a2.33 2.33 0 0 0 .35 1.27c1.09 2 2.22 4.07 3.35 6.1a15.28 15.28 0 0 1 2 9.44 1.73 1.73 0 0 0 .64 1.67c1 .91 2 1.9 2.92 2.9a10.39 10.39 0 0 1 2.84 9.46c-.45 2.4-.8 4.15-1.44 6.6-.13.58-.56.39-.86 0-.88-1.22-1.15-1.54-1.83-2.52a7.293 7.293 0 0 1-.88-4.84c.09-1.44-.56-2.13-1.91-2.07a1.36 1.36 0 0 0-.93.57A15.36 15.36 0 0 0 74 112.31c1.86 7.66 1.54 15.4.07 23.09a10.29 10.29 0 0 0-.1 3.95 22.32 22.32 0 0 1-1.77 13.25 18 18 0 0 1-2 2.92h3.44c2.8 0 3.88 1.15 3.63 4.14-1.27-1-2.56-.55-3.93-.29a75.053 75.053 0 0 1-8.46 1.13c-2.49.17-5 0-7.52-.06a5.4 5.4 0 0 1-3.65-1.39 2.06 2.06 0 0 0-2.36-.3c-2.76 1-5.62 1.78-7.92 2.49-1.65.65-6.58 0-6.58 0-6-1.17-11.79-1.16-18.3-.89-.72.05.29-.62.58-.81z" class="cls-2"/>
        <path id="Path_4048" d="M263.69 160.64h-16a.56.56 0 0 1-.57-.57.57.57 0 0 1 .57-.57h15.41V45.77h-15.39a.56.56 0 0 1-.57-.57.57.57 0 0 1 .57-.57h16a.57.57 0 0 1 .57.57v114.87a.56.56 0 0 1-.59.57z" class="cls-9" transform="translate(-.01)"/>
        <path id="Path_4049" d="M263.69 57.26H251a.56.56 0 0 1-.57-.57.57.57 0 0 1 .57-.57h12.73a.57.57 0 0 1 .57.57.56.56 0 0 1-.61.57z" class="cls-9" transform="translate(-.01)"/>
        <path id="Path_4050" d="M263.69 68.79H251a.56.56 0 0 1-.57-.57.57.57 0 0 1 .57-.57h12.73a.57.57 0 0 1 .57.57.56.56 0 0 1-.61.57z" class="cls-9" transform="translate(-.01)"/>
        <path id="Path_4051" d="M263.69 80.32H251a.57.57 0 0 1-.57-.57.56.56 0 0 1 .57-.57h12.73a.56.56 0 0 1 .57.57.57.57 0 0 1-.61.57z" class="cls-9" transform="translate(-.01)"/>
        <path id="Path_4052" d="M263.69 91.85H251a.57.57 0 0 1-.57-.57.56.56 0 0 1 .57-.57h12.73a.56.56 0 0 1 .57.57.57.57 0 0 1-.61.57z" class="cls-9" transform="translate(-.01)"/>
        <path id="Path_4053" d="M263.69 103.37H251a.57.57 0 1 1 0-1.13h12.73a.57.57 0 1 1 0 1.13z" class="cls-9" transform="translate(-.01)"/>
        <path id="Path_4054" d="M263.69 114.9H251a.56.56 0 0 1-.57-.57.57.57 0 0 1 .57-.57h12.73a.57.57 0 0 1 .57.57.56.56 0 0 1-.61.57z" class="cls-9" transform="translate(-.01)"/>
        <path id="Path_4055" d="M263.69 126.43H251a.56.56 0 0 1-.57-.57.57.57 0 0 1 .57-.57h12.73a.57.57 0 0 1 .57.57.56.56 0 0 1-.61.57z" class="cls-9" transform="translate(-.01)"/>
        <path id="Path_4056" d="M263.69 138H251a.57.57 0 0 1-.57-.57.56.56 0 0 1 .57-.57h12.73a.56.56 0 0 1 .57.57.57.57 0 0 1-.61.57z" class="cls-9" transform="translate(-.01)"/>
        <path id="Path_4057" d="M263.69 149.49H251a.57.57 0 0 1-.57-.57.56.56 0 0 1 .57-.57h12.73a.56.56 0 0 1 .57.57.57.57 0 0 1-.61.57z" class="cls-9" transform="translate(-.01)"/>
        <path id="Path_4058" d="M201.67 10.8a4.53 4.53 0 0 1-1.58-2 7.45 7.45 0 0 1-.56-3 7.4 7.4 0 0 1 .56-3 4.47 4.47 0 0 1 1.58-2 4.2 4.2 0 0 1 4.61 0 4.56 4.56 0 0 1 1.59 2 7.4 7.4 0 0 1 .57 3 7.45 7.45 0 0 1-.57 3 4.62 4.62 0 0 1-1.59 2 4.25 4.25 0 0 1-4.61 0zm4-.91a3.63 3.63 0 0 0 1.16-1.58 6.91 6.91 0 0 0 .41-2.51 6.85 6.85 0 0 0-.41-2.5 3.57 3.57 0 0 0-1.16-1.58 2.83 2.83 0 0 0-1.67-.54 2.86 2.86 0 0 0-1.72.54 3.57 3.57 0 0 0-1.18 1.58 6.85 6.85 0 0 0-.41 2.5 6.91 6.91 0 0 0 .41 2.51 3.63 3.63 0 0 0 1.16 1.58 2.86 2.86 0 0 0 1.72.54 2.83 2.83 0 0 0 1.71-.54z" class="cls-9" transform="translate(-.007)"/>
        <path id="Path_4059" d="M210.57 11.21a.89.89 0 0 1-.25-.62.87.87 0 0 1 .25-.62.85.85 0 0 1 .6-.24.87.87 0 0 1 .61.24.83.83 0 0 1 .25.62.87.87 0 0 1-.86.88.83.83 0 0 1-.6-.26z" class="cls-9" transform="translate(-.008)"/>
        <path id="Path_4060" d="M223.37 8.45h-2.23v2.94H220V8.45h-6.3v-.83l5.92-7.4h1.27l-5.71 7.21H220V4.85h1.12v2.58h2.23z" class="cls-9" transform="translate(-.008)"/>
        <path id="Path_4061" d="M231.57 1.58a6.41 6.41 0 0 1 1.18 4.13 7.07 7.07 0 0 1-.64 3.16 4.45 4.45 0 0 1-1.78 2 5.3 5.3 0 0 1-2.68.66 5.07 5.07 0 0 1-2.65-.6l.46-.93a3.89 3.89 0 0 0 2.17.53 3.68 3.68 0 0 0 2.9-1.18 4.93 4.93 0 0 0 1.06-3.4 5.864 5.864 0 0 0-.05-.91 3 3 0 0 1-1.33 1.41 4.17 4.17 0 0 1-2.09.5 4.36 4.36 0 0 1-2-.41 3.23 3.23 0 0 1-1.33-1.17 3.26 3.26 0 0 1-.48-1.77 3.19 3.19 0 0 1 1.86-3 4.43 4.43 0 0 1 1.95-.43 4.13 4.13 0 0 1 3.45 1.41zm-1.78 4a2.41 2.41 0 0 0 1-.88 2.15 2.15 0 0 0 .37-1.24 2.14 2.14 0 0 0-.34-1.18 2.58 2.58 0 0 0-1-.88 3.6 3.6 0 0 0-1.6-.33 2.88 2.88 0 0 0-2 .66 2.21 2.21 0 0 0-.76 1.76 2.2 2.2 0 0 0 .76 1.76 3.05 3.05 0 0 0 2.05.65 3.37 3.37 0 0 0 1.52-.29z" class="cls-9" transform="translate(-.01)"/>
        <path id="Path_4062" d="M241.68 1.58a6.41 6.41 0 0 1 1.18 4.13 7.07 7.07 0 0 1-.64 3.16 4.45 4.45 0 0 1-1.78 2 5.3 5.3 0 0 1-2.68.66 5.07 5.07 0 0 1-2.65-.6l.46-.93a3.94 3.94 0 0 0 2.17.53 3.7 3.7 0 0 0 2.91-1.18 4.93 4.93 0 0 0 1-3.4v-.91a3 3 0 0 1-1.32 1.41 4.22 4.22 0 0 1-2.09.5 4.38 4.38 0 0 1-2-.41A3.23 3.23 0 0 1 235 5.32a3.26 3.26 0 0 1-.48-1.77 3.29 3.29 0 0 1 .5-1.8 3.24 3.24 0 0 1 1.36-1.2 4.43 4.43 0 0 1 1.95-.43 4.12 4.12 0 0 1 3.35 1.46zm-1.78 4a2.5 2.5 0 0 0 1-.88 2.22 2.22 0 0 0 .36-1.24 2.14 2.14 0 0 0-.34-1.18 2.58 2.58 0 0 0-1-.88 3.6 3.6 0 0 0-1.6-.33 2.9 2.9 0 0 0-2 .66 2.23 2.23 0 0 0-.75 1.76 2.22 2.22 0 0 0 .75 1.76 3.07 3.07 0 0 0 2 .65 3.34 3.34 0 0 0 1.58-.29z" class="cls-9" transform="translate(-.01)"/>
        <path id="Path_4063" d="M252.94 6.58a2.67 2.67 0 0 1 .56 1.7A2.8 2.8 0 0 1 253 10a3.3 3.3 0 0 1-1.51 1.12 6.24 6.24 0 0 1-2.31.39 5.15 5.15 0 0 1-3.15-.86 2.76 2.76 0 0 1-1.15-2.34 2.63 2.63 0 0 1 .55-1.7 3.28 3.28 0 0 1 1.6-1 2.79 2.79 0 0 1-1.31-1 2.5 2.5 0 0 1-.44-1.49 2.55 2.55 0 0 1 1.04-2.2 4.6 4.6 0 0 1 2.84-.8 5.47 5.47 0 0 1 2.07.36 3.18 3.18 0 0 1 1.38 1 2.57 2.57 0 0 1 .49 1.57 2.44 2.44 0 0 1-.46 1.49 2.88 2.88 0 0 1-1.32 1 3.52 3.52 0 0 1 1.62 1.04zm-1.46 3.32a1.91 1.91 0 0 0 .84-1.64 1.91 1.91 0 0 0-.84-1.64 4.82 4.82 0 0 0-4.62 0 1.91 1.91 0 0 0-.86 1.64 1.93 1.93 0 0 0 .83 1.65 4.73 4.73 0 0 0 4.63 0zm-4.34-5.33a3.28 3.28 0 0 0 2 .55 3.36 3.36 0 0 0 2-.55 1.71 1.71 0 0 0 .74-1.45 1.72 1.72 0 0 0-.76-1.48 3.4 3.4 0 0 0-2-.54 3.33 3.33 0 0 0-2 .54 1.72 1.72 0 0 0-.75 1.47 1.73 1.73 0 0 0 .77 1.46z" class="cls-9" transform="translate(-.01)"/>
        <path id="Path_4064" d="M269.19 3.84a3.66 3.66 0 0 1 .9 2.68v4.87H269V6.63a2.85 2.85 0 0 0-.63-2 2.28 2.28 0 0 0-1.82-.63 2.67 2.67 0 0 0-2.06.81 3.14 3.14 0 0 0-.75 2.19v4.41h-1.13V6.63a2.85 2.85 0 0 0-.63-2 2.31 2.31 0 0 0-1.79-.63 2.65 2.65 0 0 0-2.05.81 3.1 3.1 0 0 0-.76 2.19v4.41h-1.13V3h1.08v1.53a3 3 0 0 1 1.24-1.18 3.93 3.93 0 0 1 1.84-.42 3.53 3.53 0 0 1 1.82.45 2.73 2.73 0 0 1 1.16 1.32 3.33 3.33 0 0 1 1.33-1.3 4.15 4.15 0 0 1 2-.47 3.36 3.36 0 0 1 2.47.91z" class="cls-9" transform="translate(-.01)"/>
        <path id="Path_4065" d="M214.6 31.62a17.75 17.75 0 0 1 0-8.2 11.89 11.89 0 0 1 1.4-3.36h1.09a12.4 12.4 0 0 0-1.38 3.46 16.91 16.91 0 0 0-.44 4 17 17 0 0 0 .44 4 12.4 12.4 0 0 0 1.35 3.48H216a12.331 12.331 0 0 1-1.4-3.38z" class="cls-3" transform="translate(-.008)"/>
        <path id="Path_4066" d="M222.19 20.73v11.16H221V21.75h-2.63v-1z" class="cls-3" transform="translate(-.01)"/>
        <path id="Path_4067" d="M225.52 31.72a.84.84 0 0 1-.25-.62.83.83 0 0 1 .25-.62.81.81 0 0 1 .6-.24.85.85 0 0 1 .6.24.84.84 0 0 1 .26.62.85.85 0 0 1-.26.62.82.82 0 0 1-.6.25.79.79 0 0 1-.6-.25z" class="cls-3" transform="translate(-.01)"/>
        <path id="Path_4068" d="M235.44 25.63a3.09 3.09 0 0 1 1.33 1.17 3.2 3.2 0 0 1 .48 1.76 3.26 3.26 0 0 1-1.86 3 4.43 4.43 0 0 1-1.95.42 4.13 4.13 0 0 1-3.4-1.46 6.38 6.38 0 0 1-1.18-4.12 7 7 0 0 1 .64-3.16 4.45 4.45 0 0 1 1.78-1.95 5.2 5.2 0 0 1 2.68-.67 5.07 5.07 0 0 1 2.65.61l-.46.92a3.92 3.92 0 0 0-2.17-.52 3.7 3.7 0 0 0-2.9 1.17 4.91 4.91 0 0 0-1.08 3.42v.91a3 3 0 0 1 1.33-1.42 4.27 4.27 0 0 1 2.08-.5 4.38 4.38 0 0 1 2.03.42zm-.08 4.73a2.26 2.26 0 0 0 .76-1.77 2.21 2.21 0 0 0-.76-1.75 3 3 0 0 0-2.05-.66 3.37 3.37 0 0 0-1.49.32 2.66 2.66 0 0 0-1 .88 2.25 2.25 0 0 0-.36 1.24 2.19 2.19 0 0 0 .34 1.19 2.48 2.48 0 0 0 1 .87 3.47 3.47 0 0 0 1.6.34 2.9 2.9 0 0 0 1.96-.66z" class="cls-3" transform="translate(-.01)"/>
        <path id="Path_4069" d="M248.46 29h-2.23v2.93h-1.15V29h-6.3v-.83l5.92-7.4h1.3l-5.71 7.21h4.85v-2.63h1.12v2.59h2.23z" class="cls-3" transform="translate(-.01)"/>
        <path id="Path_4070" d="M256.91 21.34a1.64 1.64 0 0 0-.38 1.18v1h2.59v1h-2.55v7.43h-1.14v-7.49h-1.5v-1h1.5v-1a2.48 2.48 0 0 1 .66-1.82A2.53 2.53 0 0 1 258 20a2.81 2.81 0 0 1 .92.14 2.05 2.05 0 0 1 .75.39l-.38.84a1.84 1.84 0 0 0-1.24-.41 1.44 1.44 0 0 0-1.14.38z" class="cls-3" transform="translate(-.01)"/>
        <path id="Path_4071" d="M265.47 31.38a2.1 2.1 0 0 1-.79.44 3.24 3.24 0 0 1-1 .15 2.47 2.47 0 0 1-1.82-.63 2.44 2.44 0 0 1-.64-1.81v-5.07h-1.5v-1h1.5v-1.79h1.13v1.83h2.55v1h-2.55v5a1.58 1.58 0 0 0 .38 1.14 1.41 1.41 0 0 0 1.07.39 2.2 2.2 0 0 0 .68-.11 1.59 1.59 0 0 0 .57-.32z" class="cls-3" transform="translate(-.01)"/>
        <path id="Path_4072" d="M267 35a12.8 12.8 0 0 0 1.39-3.45 18.14 18.14 0 0 0 0-8 12.67 12.67 0 0 0-1.39-3.49h1.09a12.19 12.19 0 0 1 1.38 3.36 17.75 17.75 0 0 1 0 8.2 11.791 11.791 0 0 1-1.4 3.38z" class="cls-3" transform="translate(-.01)"/>
    </g>
</svg>
